# xmcd
#
# Track frame offsets:
#	150
#	14086
#	31594
#	42384
#	55410
#	67029
#	83234
#	96580
#	104192
#	121281
#	130076
#	148559
#
# Disc length: 2150 seconds
#
# Revision: 0
# Processed by: cddbd v1.5.1PL0 Copyright (c) Steve Scherf et al.
# Submitted via: EasyCDDAExtractor 7.5.0.1
#
DISCID=b108640c
DTITLE=Various Artist - Os Melhores Xotes Gaúchos
DYEAR=1900
DGENRE=
TTITLE0=Porca Véia - Lá Fora
TTITLE1=Bando Gaúcho - Não Mete o Bico
TTITLE2=Tchê Sarandeio - Longe do Pago
TTITLE3=Dedé Cunha - Mal Domado
TTITLE4=Piazitos do Fandango - Assim é o Xote
TTITLE5=Zezinho Furquim - O Toque do Seu Furquim
TTITLE6=Embalo Nativo - Xote Catarina
TTITLE7=Neneco - Xote do Vovô
TTITLE8=Piazitos do Fandango - Bilhete Pro Compadre
TTITLE9=Luis Carlos - Marcando o Xote
TTITLE10=Antonio Marques - Xote Campeiro
TTITLE11=Ademo Riffel - Maragato
EXTD=
EXTT0=
EXTT1=
EXTT2=
EXTT3=
EXTT4=
EXTT5=
EXTT6=
EXTT7=
EXTT8=
EXTT9=
EXTT10=
EXTT11=
PLAYORDER=
